<svg id="visual" viewBox="0 0 1440 1024" width="1440" height="1024" xmlns="http://www.w3.org/2000/svg" xmlns:xlink="http://www.w3.org/1999/xlink" version="1.1"><rect width="1440" height="1024" fill="#E7E7DE"></rect><g><g transform="translate(1369 615)"><path d="M132.3 -42.4C151.2 15.5 132.6 86.1 85.8 120.8C39 155.4 -35.9 153.9 -83.3 118.6C-130.8 83.2 -150.7 13.9 -132.3 -43.3C-113.8 -100.5 -56.9 -145.6 -0.1 -145.5C56.6 -145.5 113.3 -100.3 132.3 -42.4Z" stroke="#00587A" fill="none" stroke-width="10"></path></g><g transform="translate(703 953)"><path d="M108.7 -33.4C125.2 15.4 112 75.7 72.1 106.4C32.2 137 -34.4 138 -83.3 104.8C-132.2 71.6 -163.3 4.2 -146.4 -45C-129.6 -94.3 -64.8 -125.4 -9.3 -122.3C46.1 -119.3 92.2 -82.1 108.7 -33.4Z" stroke="#00587A" fill="none" stroke-width="10"></path></g><g transform="translate(535 150)"><path d="M145.2 -46.6C161.8 3.9 130.7 70.4 80.4 105.8C30.1 141.2 -39.4 145.5 -83.6 113.7C-127.8 81.9 -146.8 14 -128.6 -38.6C-110.5 -91.2 -55.3 -128.6 4.5 -130.1C64.3 -131.5 128.6 -97.1 145.2 -46.6Z" stroke="#00587A" fill="none" stroke-width="10"></path></g></g></svg>