<svg width="33" height="32" viewBox="0 0 33 32" fill="none" xmlns="http://www.w3.org/2000/svg">
<path d="M16.6623 10.6644C13.7244 10.6644 11.3268 13.062 11.3268 16C11.3268 18.938 13.7244 21.3356 16.6623 21.3356C19.6003 21.3356 21.9978 18.938 21.9978 16C21.9978 13.062 19.6003 10.6644 16.6623 10.6644ZM32.6648 16C32.6648 13.7905 32.6849 11.601 32.5608 9.39554C32.4367 6.83381 31.8523 4.56027 29.9791 2.68701C28.1018 0.809737 25.8324 0.229345 23.2707 0.105261C21.0612 -0.018823 18.8718 0.00119058 16.6663 0.00119058C14.4569 0.00119058 12.2674 -0.018823 10.062 0.105261C7.50031 0.229345 5.22681 0.813739 3.35358 2.68701C1.47635 4.56427 0.895966 6.83381 0.771885 9.39554C0.647803 11.605 0.667817 13.7945 0.667817 16C0.667817 18.2055 0.647803 20.399 0.771885 22.6045C0.895966 25.1662 1.48035 27.4397 3.35358 29.313C5.23081 31.1903 7.50031 31.7707 10.062 31.8947C12.2714 32.0188 14.4609 31.9988 16.6663 31.9988C18.8758 31.9988 21.0652 32.0188 23.2707 31.8947C25.8324 31.7707 28.1058 31.1863 29.9791 29.313C31.8563 27.4357 32.4367 25.1662 32.5608 22.6045C32.6889 20.399 32.6648 18.2095 32.6648 16ZM16.6623 24.2095C12.1193 24.2095 8.45293 20.5431 8.45293 16C8.45293 11.4569 12.1193 7.79045 16.6623 7.79045C21.2053 7.79045 24.8717 11.4569 24.8717 16C24.8717 20.5431 21.2053 24.2095 16.6623 24.2095ZM25.2079 9.37152C24.1472 9.37152 23.2907 8.51494 23.2907 7.45423C23.2907 6.39351 24.1472 5.53693 25.2079 5.53693C26.2686 5.53693 27.1252 6.39351 27.1252 7.45423C27.1255 7.7061 27.0761 7.95556 26.9799 8.18832C26.8837 8.42108 26.7424 8.63256 26.5644 8.81066C26.3863 8.98876 26.1748 9.12998 25.942 9.22622C25.7093 9.32246 25.4598 9.37184 25.2079 9.37152Z" fill="#E7E7DE"/>
</svg>
