<svg width="28" height="28" viewBox="0 0 28 28" fill="none" xmlns="http://www.w3.org/2000/svg">
<path fill-rule="evenodd" clip-rule="evenodd" d="M10.572 9.95866H15.524V12.4253C16.2373 11.0067 18.0666 9.73199 20.8146 9.73199C26.0826 9.73199 27.3333 12.556 27.3333 17.7373V27.3333H22V18.9173C22 15.9667 21.2866 14.3027 19.4706 14.3027C16.952 14.3027 15.9053 16.096 15.9053 18.916V27.3333H10.572V9.95866ZM1.42663 27.1067H6.75996V9.73199H1.42663V27.1067ZM7.52396 4.06666C7.52416 4.51369 7.4355 4.9563 7.26314 5.36877C7.09078 5.78124 6.83816 6.15534 6.51996 6.46932C5.87516 7.11016 5.00237 7.46886 4.09329 7.46666C3.18581 7.46605 2.31504 7.10826 1.66929 6.47066C1.35224 6.15561 1.10047 5.78109 0.928418 5.36857C0.756361 4.95604 0.667398 4.51362 0.666626 4.06666C0.666626 3.16399 1.02663 2.29999 1.67063 1.66266C2.31581 1.0242 3.18695 0.666258 4.09463 0.666657C5.00396 0.666657 5.87596 1.02532 6.51996 1.66266C7.16263 2.29999 7.52396 3.16399 7.52396 4.06666Z" fill="#E7E7DE"/>
</svg>
