<svg width="36" height="28" viewBox="0 0 36 28" fill="none" xmlns="http://www.w3.org/2000/svg">
<path d="M35.6666 3.70269C34.3795 4.24391 32.9968 4.60959 31.5433 4.77488C33.0431 3.92326 34.1652 2.58292 34.7001 1.00394C33.291 1.79819 31.7488 2.35726 30.1406 2.65684C29.059 1.56105 27.6266 0.83474 26.0655 0.590679C24.5044 0.346618 22.9021 0.598457 21.5073 1.3071C20.1125 2.01574 19.0033 3.14153 18.3518 4.50969C17.7004 5.87785 17.5432 7.41183 17.9046 8.87347C15.0493 8.73743 12.2562 8.0332 9.7063 6.80649C7.15644 5.57977 4.90689 3.85798 3.10365 1.75286C2.48707 2.76215 2.13254 3.93234 2.13254 5.1786C2.13185 6.30051 2.423 7.40524 2.98014 8.39477C3.53729 9.38429 4.34322 10.228 5.32641 10.8511C4.18617 10.8167 3.07108 10.5243 2.07396 9.99832V10.0861C2.07385 11.6596 2.64743 13.1847 3.69738 14.4026C4.74734 15.6205 6.20899 16.4562 7.83434 16.7679C6.77657 17.0395 5.66759 17.0795 4.59114 16.8849C5.04971 18.2388 5.94298 19.4228 7.14588 20.271C8.34877 21.1193 9.80109 21.5893 11.2995 21.6154C8.75586 23.5102 5.61448 24.5381 2.38071 24.5336C1.80788 24.5337 1.23554 24.502 0.666626 24.4385C3.94909 26.4412 7.77012 27.5041 11.6725 27.5C24.8827 27.5 32.1044 17.1175 32.1044 8.11285C32.1044 7.8203 32.0966 7.52483 32.0828 7.23228C33.4875 6.2683 34.7 5.07459 35.6635 3.70708L35.6666 3.70269Z" fill="#E7E7DE"/>
</svg>
