<svg width="33" height="32" viewBox="0 0 33 32" fill="none" xmlns="http://www.w3.org/2000/svg">
<path d="M16.4957 10.6644C13.5578 10.6644 11.1602 13.062 11.1602 16C11.1602 18.938 13.5578 21.3356 16.4957 21.3356C19.4336 21.3356 21.8312 18.938 21.8312 16C21.8312 13.062 19.4336 10.6644 16.4957 10.6644ZM32.4982 16C32.4982 13.7905 32.5182 11.601 32.3941 9.39554C32.2701 6.83381 31.6857 4.56027 29.8125 2.68701C27.9352 0.809737 25.6657 0.229345 23.104 0.105261C20.8946 -0.018823 18.7052 0.00119058 16.4997 0.00119058C14.2902 0.00119058 12.1008 -0.018823 9.89536 0.105261C7.33368 0.229345 5.06019 0.813739 3.18696 2.68701C1.30972 4.56427 0.72934 6.83381 0.605259 9.39554C0.481177 11.605 0.501191 13.7945 0.501191 16C0.501191 18.2055 0.481177 20.399 0.605259 22.6045C0.72934 25.1662 1.31372 27.4397 3.18696 29.313C5.06419 31.1903 7.33368 31.7707 9.89536 31.8947C12.1048 32.0188 14.2943 31.9988 16.4997 31.9988C18.7092 31.9988 20.8986 32.0188 23.104 31.8947C25.6657 31.7707 27.9392 31.1863 29.8125 29.313C31.6897 27.4357 32.2701 25.1662 32.3941 22.6045C32.5222 20.399 32.4982 18.2095 32.4982 16ZM16.4957 24.2095C11.9527 24.2095 8.28631 20.5431 8.28631 16C8.28631 11.4569 11.9527 7.79045 16.4957 7.79045C21.0387 7.79045 24.7051 11.4569 24.7051 16C24.7051 20.5431 21.0387 24.2095 16.4957 24.2095ZM25.0413 9.37152C23.9806 9.37152 23.1241 8.51494 23.1241 7.45423C23.1241 6.39351 23.9806 5.53693 25.0413 5.53693C26.102 5.53693 26.9586 6.39351 26.9586 7.45423C26.9589 7.7061 26.9095 7.95556 26.8133 8.18832C26.717 8.42108 26.5758 8.63256 26.3977 8.81066C26.2196 8.98876 26.0082 9.12998 25.7754 9.22622C25.5426 9.32246 25.2932 9.37184 25.0413 9.37152Z" fill="black"/>
</svg>
