<svg width="36" height="28" viewBox="0 0 36 28" fill="none" xmlns="http://www.w3.org/2000/svg">
<path d="M35.5 3.70269C34.2129 4.24391 32.8302 4.60959 31.3766 4.77488C32.8765 3.92326 33.9986 2.58292 34.5335 1.00394C33.1244 1.79819 31.5822 2.35726 29.9739 2.65684C28.8924 1.56105 27.4599 0.83474 25.8989 0.590679C24.3378 0.346618 22.7355 0.598457 21.3407 1.3071C19.9459 2.01574 18.8367 3.14153 18.1852 4.50969C17.5338 5.87785 17.3765 7.41183 17.738 8.87347C14.8827 8.73743 12.0895 8.0332 9.53967 6.80649C6.98981 5.57977 4.74026 3.85798 2.93702 1.75286C2.32044 2.76215 1.96591 3.93234 1.96591 5.1786C1.96522 6.30051 2.25637 7.40524 2.81352 8.39477C3.37067 9.38429 4.17659 10.228 5.15978 10.8511C4.01954 10.8167 2.90446 10.5243 1.90734 9.99832V10.0861C1.90722 11.6596 2.4808 13.1847 3.53076 14.4026C4.58071 15.6205 6.04237 16.4562 7.66771 16.7679C6.60995 17.0395 5.50096 17.0795 4.42451 16.8849C4.88309 18.2388 5.77635 19.4228 6.97925 20.271C8.18215 21.1193 9.63446 21.5893 11.1329 21.6154C8.58924 23.5102 5.44786 24.5381 2.21408 24.5336C1.64126 24.5337 1.06891 24.502 0.5 24.4385C3.78247 26.4412 7.60349 27.5041 11.5059 27.5C24.7161 27.5 31.9377 17.1175 31.9377 8.11285C31.9377 7.8203 31.93 7.52483 31.9161 7.23228C33.3209 6.2683 34.5334 5.07459 35.4969 3.70708L35.5 3.70269Z" fill="black"/>
</svg>
