<svg width="1440" height="1024" viewBox="0 0 1440 1024" fill="none" xmlns="http://www.w3.org/2000/svg">
<mask id="mask0_37_19" style="mask-type:alpha" maskUnits="userSpaceOnUse" x="0" y="0" width="1440" height="1024">
<path d="M0 0H1440V1024H0V0Z" fill="#E7E7DE"/>
</mask>
<g mask="url(#mask0_37_19)">
<path d="M1498.3 572.6C1517.2 630.5 1498.6 701.1 1451.8 735.8C1405 770.4 1330.1 768.9 1282.7 733.6C1235.2 698.2 1215.3 628.9 1233.7 571.7C1252.2 514.5 1309.1 469.4 1365.9 469.5C1422.6 469.5 1479.3 514.7 1498.3 572.6Z" stroke="#0F3057" stroke-width="10"/>
<path d="M845.743 959.6C862.243 1008.4 849.043 1068.7 809.143 1099.4C769.243 1130 702.643 1131 653.743 1097.8C604.843 1064.6 573.743 997.2 590.643 948C607.443 898.7 672.243 867.6 727.743 870.7C783.143 873.7 829.243 910.9 845.743 959.6Z" stroke="#0F3057" stroke-width="10"/>
<path d="M214.665 55.5412C231.265 106.041 200.165 172.541 149.865 207.941C99.5652 243.341 30.0652 247.641 -14.1348 215.841C-58.3348 184.041 -77.3348 116.141 -59.1348 63.5412C-41.0348 10.9412 14.1652 -26.4588 73.9652 -27.9588C133.765 -29.3588 198.065 5.04121 214.665 55.5412Z" stroke="#0F3057" stroke-width="10"/>
</g>
</svg>
